<svg width="337" height="197" viewBox="0 0 337 197" fill="none" xmlns="http://www.w3.org/2000/svg">
<path d="M221.773 12.167C173.172 43.7814 193.658 89.4335 209.977 108.308C203.922 94.9386 209.977 59.9665 234.75 48.7364C269.1 33.1651 298.214 50.5058 308.477 61.1226L330.301 29.8616C287.362 -6.94317 240.058 2.72989 221.773 12.167Z" fill="#48A952"/>
<path d="M295.501 149.596C212.455 182.626 175.178 124.823 166.921 91.7932C164.561 122.464 176.358 183.805 241.238 192.653C293.142 199.73 326.172 176.727 336.199 164.341V98.2813H295.501V149.596Z" fill="#48A952"/>
<path d="M124.491 125.632V0L149.814 3.37455V129.92C148.683 150.027 136.811 178.334 108.544 190.789C47.488 212.868 2.24521 166.5 0 142.667C0.549513 148.5 12.2509 178.73 53.1414 183.429C87.6267 187.392 119.734 157.482 124.491 125.632Z" fill="#48A952"/>
<path d="M40.9219 119.455L16.2246 121.484C23.653 164.003 80.8427 174.937 98.9334 122.852C86.3486 159.085 44.6614 144.931 40.9219 119.455Z" fill="#48A952"/>
</svg>
